<?xml version="1.0" standalone="no"?>
<!DOCTYPE svg PUBLIC "-//W3C//DTD SVG 20010904//EN"
 "http://www.w3.org/TR/2001/REC-SVG-20010904/DTD/svg10.dtd">
<svg version="1.0" xmlns="http://www.w3.org/2000/svg"
 width="180.000000pt" height="180.000000pt" viewBox="0 0 180.000000 180.000000"
 preserveAspectRatio="xMidYMid meet">

<g transform="translate(0.000000,180.000000) scale(0.100000,-0.100000)"
fill="#000000" stroke="none">
<path d="M1315 1514 c-71 -42 -137 -83 -146 -91 -10 -8 -31 -71 -49 -146 -18
-73 -36 -135 -40 -140 -8 -9 -30 9 -245 193 -202 173 -248 210 -261 210 -5 0
-31 -13 -57 -30 l-47 -30 0 -120 c0 -66 -3 -120 -7 -120 -8 0 -131 68 -165 92
-33 23 -49 23 -95 -3 -58 -32 -63 -39 -53 -79 13 -53 97 -375 160 -613 10 -38
20 -70 22 -72 10 -10 560 -325 568 -325 9 0 435 242 503 286 l37 24 0 305 c0
167 4 306 8 309 4 3 29 -9 54 -25 l46 -30 56 31 c31 18 56 36 56 42 0 15 -201
408 -209 408 -3 0 -64 -35 -136 -76z m210 -157 c77 -153 79 -158 61 -172 -31
-23 -39 -18 -65 38 -14 28 -28 54 -31 57 -11 9 -100 199 -100 214 0 16 17 26
40 23 8 -1 50 -72 95 -160z m-897 91 c26 -24 72 -63 102 -88 30 -25 75 -63
101 -85 119 -102 168 -143 212 -179 33 -27 47 -45 45 -59 -4 -28 -20 -31 -43
-9 -11 10 -94 78 -185 152 -91 74 -170 139 -176 144 -7 6 -20 18 -31 26 -10 8
-41 33 -68 54 -28 22 -52 42 -55 44 -5 3 37 42 46 42 2 0 25 -19 52 -42z m814
-108 c37 -74 63 -136 58 -138 -5 -2 -46 22 -92 54 -46 31 -109 75 -141 97 -37
26 -54 44 -48 50 21 21 127 77 141 74 8 -1 45 -63 82 -137z m-852 41 c25 -19
47 -38 50 -41 3 -3 28 -23 55 -45 28 -21 52 -42 55 -45 3 -3 55 -46 115 -95
61 -49 115 -94 121 -100 6 -5 28 -23 48 -39 25 -19 36 -36 36 -54 0 -14 2 -23
5 -20 6 5 39 130 85 313 29 119 44 135 85 98 11 -10 32 -26 47 -35 14 -10 29
-26 33 -37 4 -12 12 -18 21 -14 8 3 21 0 29 -7 13 -11 15 -64 15 -351 0 -320
-1 -339 -19 -348 -10 -6 -21 -7 -25 -4 -4 4 -17 -4 -29 -18 -12 -15 -103 -72
-202 -129 -99 -56 -184 -105 -189 -108 -10 -6 -4 31 18 111 19 68 19 77 6 77
-5 0 -10 -15 -10 -34 0 -19 -4 -38 -10 -41 -5 -3 -10 -19 -10 -35 0 -16 -5
-32 -10 -35 -6 -3 -10 -15 -10 -26 0 -10 -5 -19 -11 -19 -6 0 -125 66 -265
146 l-253 147 -16 54 c-16 56 -26 92 -108 411 -49 188 -48 205 12 163 16 -12
31 -21 34 -21 3 0 34 -17 68 -38 35 -22 84 -50 109 -64 66 -37 109 -61 166
-95 45 -27 112 -65 169 -97 11 -6 62 -36 113 -66 86 -51 92 -56 92 -87 0 -43
16 -43 23 0 2 17 12 58 21 90 18 67 20 91 6 82 -5 -3 -10 -15 -10 -26 0 -10
-6 -19 -13 -19 -18 0 -67 24 -67 33 0 4 -4 7 -9 7 -5 0 -44 20 -85 45 -42 25
-81 45 -86 45 -6 0 -10 3 -10 8 0 4 -10 12 -23 18 -30 14 -109 59 -182 103
l-60 36 -3 115 c-1 62 0 120 3 128 6 16 14 12 75 -37z m-257 -122 c40 -23 87
-50 105 -60 40 -24 83 -48 143 -81 82 -46 94 -53 99 -58 5 -5 18 -12 99 -58
25 -14 64 -36 86 -49 22 -13 48 -26 58 -30 9 -3 17 -9 17 -14 0 -5 5 -9 10 -9
6 0 26 -10 45 -22 37 -24 49 -68 19 -68 -16 0 -90 39 -136 71 -14 11 -29 19
-33 19 -4 0 -19 8 -33 18 -15 11 -52 32 -82 48 -30 15 -66 36 -80 45 -27 18
-52 32 -226 130 -70 39 -79 44 -84 49 -3 3 -26 16 -52 30 -25 13 -55 30 -65
38 -17 13 -17 14 1 28 27 19 27 19 109 -27z"/>
<path d="M997 697 c-4 -10 -9 -42 -11 -70 -2 -29 -2 -41 1 -27 2 14 8 34 14
46 6 12 9 32 7 45 -3 21 -4 22 -11 6z"/>
<path d="M962 530 c0 -19 2 -27 5 -17 2 9 2 25 0 35 -3 9 -5 1 -5 -18z"/>
</g>
</svg>
