<svg xmlns="http://www.w3.org/2000/svg" version="1.0" viewBox="0 -22 180 180" fill="#fff"><path fill="#fff" d="M131.5 28.6c-7.1 4.2-13.7 8.3-14.6 9.1-1 .8-3.1 7.1-4.9 14.6-1.8 7.3-3.6 13.5-4 14-.8.9-3-.9-24.5-19.3-20.2-17.3-24.8-21-26.1-21-.5 0-3.1 1.3-5.7 3L47 32v12c0 6.6-.3 12-.7 12-.8 0-13.1-6.8-16.5-9.2-3.3-2.3-4.9-2.3-9.5.3C14.5 50.3 14 51 15 55c1.3 5.3 9.7 37.5 16 61.3 1 3.8 2 7 2.2 7.2 1 1 56 32.5 56.8 32.5.9 0 43.5-24.2 50.3-28.6l3.7-2.4V94.5c0-16.7.4-30.6.8-30.9.4-.3 2.9.9 5.4 2.5l4.6 3 5.6-3.1c3.1-1.8 5.6-3.6 5.6-4.2 0-1.5-20.1-40.8-20.9-40.8-.3 0-6.4 3.5-13.6 7.6zm21 15.7c7.7 15.3 7.9 15.8 6.1 17.2-3.1 2.3-3.9 1.8-6.5-3.8-1.4-2.8-2.8-5.4-3.1-5.7-1.1-.9-10-19.9-10-21.4 0-1.6 1.7-2.6 4-2.3.8.1 5 7.2 9.5 16zm-89.7-9.1C65.4 37.6 70 41.5 73 44c3 2.5 7.5 6.3 10.1 8.5C95 62.7 99.9 66.8 104.3 70.4c3.3 2.7 4.7 4.5 4.5 5.9-.4 2.8-2 3.1-4.3.9-1.1-1-9.4-7.8-18.5-15.2-9.1-7.4-17-13.9-17.6-14.4-.7-.6-2-1.8-3.1-2.6-1-.8-4.1-3.3-6.8-5.4-2.8-2.2-5.2-4.2-5.5-4.4-.5-.3 3.7-4.2 4.6-4.2.2 0 2.5 1.9 5.2 4.2zM144.2 46c3.7 7.4 6.3 13.6 5.8 13.8-.5.2-4.6-2.2-9.2-5.4-4.6-3.1-10.9-7.5-14.1-9.7-3.7-2.6-5.4-4.4-4.8-5 2.1-2.1 12.7-7.7 14.1-7.4.8.1 4.5 6.3 8.2 13.7zM59 41.9c2.5 1.9 4.7 3.8 5 4.1.3.3 2.8 2.3 5.5 4.5 2.8 2.1 5.2 4.2 5.5 4.5.3.3 5.5 4.6 11.5 9.5 6.1 4.9 11.5 9.4 12.1 10 .6.5 2.8 2.3 4.8 3.9 2.5 1.9 3.6 3.6 3.6 5.4 0 1.4.2 2.3.5 2 .6-.5 3.9-13 8.5-31.3 2.9-11.9 4.4-13.5 8.5-9.8 1.1 1 3.2 2.6 4.7 3.5 1.4 1 2.9 2.6 3.3 3.7.4 1.2 1.2 1.8 2.1 1.4.8-.3 2.1 0 2.9.7 1.3 1.1 1.5 6.4 1.5 35.1 0 32-.1 33.9-1.9 34.8-1 .6-2.1.7-2.5.4-.4-.4-1.7.4-2.9 1.8-1.2 1.5-10.3 7.2-20.2 12.9-9.9 5.6-18.4 10.5-18.9 10.8-1 .6-.4-3.1 1.8-11.1 1.9-6.8 1.9-7.7.6-7.7-.5 0-1 1.5-1 3.4s-.4 3.8-1 4.1c-.5.3-1 1.9-1 3.5s-.5 3.2-1 3.5c-.6.3-1 1.5-1 2.6 0 1-.5 1.9-1.1 1.9-.6 0-12.5-6.6-26.5-14.6l-25.3-14.7-1.6-5.4c-1.6-5.6-2.6-9.2-10.8-41.1-4.9-18.8-4.8-20.5 1.2-16.3 1.6 1.2 3.1 2.1 3.4 2.1.3 0 3.4 1.7 6.8 3.8 3.5 2.2 8.4 5 10.9 6.4 6.6 3.7 10.9 6.1 16.6 9.5 4.5 2.7 11.2 6.5 16.9 9.7 1.1.6 6.2 3.6 11.3 6.6 8.6 5.1 9.2 5.6 9.2 8.7 0 4.3 1.6 4.3 2.3 0 .2-1.7 1.2-5.8 2.1-9 1.8-6.7 2-9.1.6-8.2-.5.3-1 1.5-1 2.6 0 1-.6 1.9-1.3 1.9-1.8 0-6.7-2.4-6.7-3.3 0-.4-.4-.7-.9-.7s-4.4-2-8.5-4.5C83.4 81 79.5 79 79 79c-.6 0-1-.3-1-.8 0-.4-1-1.2-2.3-1.8-3-1.4-10.9-5.9-18.2-10.3l-6-3.6-.3-11.5c-.1-6.2 0-12 .3-12.8.6-1.6 1.4-1.2 7.5 3.7zM33.3 54.1c4 2.3 8.7 5 10.5 6 4 2.4 8.3 4.8 14.3 8.1 8.2 4.6 9.4 5.3 9.9 5.8s1.8 1.2 9.9 5.8c2.5 1.4 6.4 3.6 8.6 4.9 2.2 1.3 4.8 2.6 5.8 3 .9.3 1.7.9 1.7 1.4 0 .5.5.9 1 .9.6 0 2.6 1 4.5 2.2 3.7 2.4 4.9 6.8 1.9 6.8-1.6 0-9-3.9-13.6-7.1-1.4-1.1-2.9-1.9-3.3-1.9-.4 0-1.9-.8-3.3-1.8-1.5-1.1-5.2-3.2-8.2-4.8-3-1.5-6.6-3.6-8-4.5-2.7-1.8-5.2-3.2-22.6-13-7-3.9-7.9-4.4-8.4-4.9-.3-.3-2.6-1.6-5.2-3-2.5-1.3-5.5-3-6.5-3.8-1.7-1.3-1.7-1.4.1-2.8 2.7-1.9 2.7-1.9 10.9 2.7z"/><path d="M99.7 110.3c-.4 1-.9 4.2-1.1 7-.2 2.9-.2 4.1.1 2.7.2-1.4.8-3.4 1.4-4.6.6-1.2.9-3.2.7-4.5-.3-2.1-.4-2.2-1.1-.6zM96.2 127c0 1.9.2 2.7.5 1.7.2-.9.2-2.5 0-3.5-.3-.9-.5-.1-.5 1.8z"/><path fill="#fff" stroke="#fff" stroke-width=".05" d="M13.205 167.34s.717.465.713.469a14.49 14.49 0 0 0-.611-.306c.004-.004-1.523-1.225-1.527-1.221" opacity="NaN"/><path fill="#fff" stroke="#fff" d="m120.182 42.09 23.863 20.228" opacity="NaN"/><path fill="none" stroke="#fff" d="M139.273 57.545c.227 0 .227-.227.227-.454s-.104-.612-.227-.91c-.087-.21-.158-.496-.455-.908-.188-.261-.455-.455-.455-.682l-.454-.455c-.16-.16-.455-.454-.455-.682 0 0-.244.087-.454 0-.297-.123-.455-.227-.455-.227-.227 0-.227 0 0 .455.228.454.682.909 1.137 1.363l.682.682c.227.227.157.332.454.455.21.087.455 0 .455 0-.228-.228-.666-.594-1.137-1.137-.333-.384-.642-.792-1.136-.909-.221-.052-.158-.577-.455-.454-.21.087-.131.632.455 1.363.318.397.612.786.909.91.21.086.454 0 .454 0 0 .227.8.187.682.681-.052.221-.52-.52-.682-.682-.32-.321-.909-.227-1.136-.454a2.095 2.095 0 0 0-.682-.455c-.297-.123-.25-.642-.682-.909-.193-.12-.227 0-.227 0-.227-.227-.384-.27-.682-.682-.188-.26-.295-.215-.681-.454-.433-.267-.294-.521-.455-.682-.16-.16-.314-.437-.227-.227.123.297.414.25.682.682.12.193.454.454.454.454.91.682.927.595 1.137.682.296.123.454.682.681.682.228 0 .455-.91 0-.91-.227 0-.174.49 0 .91.246.594.91.909 1.137 1.136.227.227.454.227.681.682 0 0 .28.221.228 0-.117-.495-.275-.64-.682-1.136-.52-.634-.931-1.324-1.364-1.591-.193-.12-.472-.368-.682-.455-.296-.123-.244-.367-.454-.454-.297-.123-.455-.455-.682-.455 0 0-.335-.261-.454-.454-.268-.433-.522-.294-.682-.455-.16-.16-.612-.332-.91-.455A2.095 2.095 0 0 1 132 50.5s.07-.104-.227-.227c-.21-.087-.56.07-.682-.228-.087-.21.07-.331-.227-.454-.21-.087-.158-.104-.455-.227-.21-.087-.227-.228-.455-.455-.227-.227-.454-.227-.681-.455 0 0 0-.227-.455-.681l-.454-.455c0-.454-.245-.367-.455-.454-.297-.123-.455-.455-.455-.455-.227-.227-.227-.454-.454-.454s-.227-.228-.455-.455c0 0-.227-.455-.681-.455-.228 0-.194-.266-.455-.454-.412-.297-.521-.294-.682-.455-.16-.16-.472.087-.682 0-.297-.123-.385-.558-.681-.681-.21-.087-.455-.228-.455-.228-.227-.227-.595-.244-.682-.454-.123-.297-.314-.438-.227-.228.123.297.454.228.682.455.227.227.472.14.682.227.296.123.244.368.454.455.297.123.227.454.455.454.454 0 .293.294.454.455.16.16.067.294.227.454.161.161.56.158.682.455.087.21.105.158.228.454.087.21.26.108.454.228.432.267.227.682.455.682.227 0 .52.066.681.227.161.16.385.559.682.682.21.087.368.244.455.454.123.297.294.294.454.455.322.321.455.227.682.227.227 0 .402.006.455.227.116.495.454.455.682.455.227 0 .107.034.227.227.267.432.52.521.682.682.16.16.227 0 .227.227s-.07.805.227.682c.21-.087-.053-.262-.227-.682-.123-.297-.521-.066-.682-.227-.16-.16-.14-.245-.227-.455-.123-.297-.682-.454-.91-.454 0 0-.322-.095-.681-.455-.36-.359-.36-.133-.682-.454-.16-.161-.261-.335-.454-.455-.433-.267-.336-.488-.455-.682-.267-.432-.49-.507-.91-.681-.296-.123-.132-.588-.454-.91-.321-.32-.681-.227-.909-.454 0 0 .07-.332-.227-.455-.21-.087-.368-.017-.455-.227-.123-.297-.227-.227-.681-.454l-.228-.228h-.227"/><path fill="#fff" stroke="#fff" d="M139.727 57.773C135.637 55.5 120.182 43.682 120 43.636" opacity="NaN"/><path fill="none" stroke="#fff" d="M123.364 44.818c-.228-.227-.294-.521-.455-.682-.16-.16-.245-.14-.455-.227-.297-.123-.454-.455-.454-.455-.455-.227-.521-.293-.682-.454-.16-.16-.067-.294-.227-.455-.16-.16-.385-.104-.682-.227-.21-.087-.682-.682-.91-.454-.226.227.455.454.683.681.227.228.52.522.682.682.16.16.454 0 .681.227.228.228.335.262.455.455.267.432.682.455.909.682 0 0-.07.331.227.454.21.087.665.315.455.228-.297-.123-.612-.332-.91-.455a2.095 2.095 0 0 1-.681-.454c-.227-.228-.455-.228-.682-.228-.227 0-.472-.14-.682-.227-.297-.123-.454-.227-.454-.227-.455-.228-.7-.14-.91-.228-.296-.123-.681-.454-.681-.227s.454 0 .682 0h1.59c.228 0 .415.11.91.227.22.053.786.158.909.455.087.21.23.19.454.227.71.115.84.56 1.137.682.21.087.454.227.454.227.455.228.786.158.91.455.086.21.454.454.454.454.682.455.869.793 1.363.91.443.104.777.322 1.137.681.36.36.682.228.682.228.227.227.642.25.909.681.12.194.042.158.454.455.261.188.455.227.455.455 0 .227.52.066.682.227.16.16.227.454.227.454 0 .228.454.455.454.455.228 0 .216.295.455.682.267.432.786.157.909.454.174.42.663.543.91 1.137.086.21.471.367.68.454.298.123.49.335.683.455.432.267.294.52.454.682.161.16.612.558.91.681.21.087.454.228.681.455.227.227.245.367.455.454.297.123.367.245.454.455.123.297.228.455.455.455.454 0 .786.384.909.681.087.21.521.067.682.228.16.16.36.133.682.454.321.322.157.559.454.682.21.087.227.227.455.455l.227.227h.454"/><path fill="#fff" stroke="#fff" d="M149.54 55.887s-.417-2.923-.48-3.069l.48 3.069zM138.058 33.549l11.9 24.008M139.31 33.758l11.9 23.59" opacity="NaN"/><path fill="#fff" stroke="#fff" stroke-width=".5" d="M107.457 82.974s-2.37 9.483-2.5 9.483c.13 0 1.422-1.293 1.293-1.293.13 0 1.638-6.897 1.509-6.897" opacity="NaN"/><path fill="#fff" stroke="#fff" d="m107.768 81.977-3.107 10.735s.989-1.554.989-1.61c0 .056 2.118-9.125 2.118-9.125z" opacity="NaN"/><path fill="none" stroke="#fff" d="M105.367 91.44s.087-.151.141-.282c.077-.184.142-.282.142-.282.14-.142.282-.142.282-.142.141 0 .283 0 .283-.14 0-.142-.283 0-.283 0h-.141"/><path fill="#fff" stroke="#fff" stroke-width=".5" d="m62.084 69.13 34.301 19.524 7.388 3.694" opacity="NaN"/><path fill="none" stroke="#fff" d="M76.86 78.1s.06-.04.132.132c.05.122.264.264.396.264 0 0 .264.132.396.132s.142-.05.263 0c.173.071.325.091.396.264.05.122.132.132.132.264h.132v.132M97.309 89.446s-.094.17 0 .264c.093.093.17.038.264.132.093.093.091.324.263.395.122.05.142.082.264.132.173.072.214.142.264.264.071.173.132.132.264.132.264 0 .419.113.528.264.172.24.302.17.395.264.094.093.092.192.264.264.244.1.264.132.264.132.132.132.274.081.396.132.172.07.091.192.264.263.122.05.223.193.395.264.122.05.264 0 .396 0s.183-.142.132-.264c-.071-.172-.264-.263-.264-.263-.132 0-.223-.193-.395-.264-.122-.05-.132-.132-.264-.132s-.132-.132-.264-.132-.325.04-.396-.132c-.05-.122-.152-.163-.396-.264-.172-.071-.091-.192-.264-.264-.121-.05-.131-.132-.263-.132h-.132l-.132-.132h-.132"/><path fill="none" stroke="#fff" stroke-linecap="round" d="M97.968 90.105h0"/><path fill="none" stroke="#fff" stroke-width=".5" d="m89.286 85.456 12.797 8.433s1.885 1.488 1.885 1.448" opacity="NaN"/><path fill="none" stroke="#fff" d="M89.683 85.952s5.06 3.373 5.06 3.334" opacity="NaN"/><path fill="none" stroke="#fff" d="M97.718 89.821h.496c.1 0 .199 0 .199.1 0 .099.099.099.099.198v.1h.198l-.992-.398z"/><path fill="#fff" stroke="#fff" stroke-width=".5" d="m106.016 89.283 3.015-8.54c.04.04-2.484 9.47-2.484 9.47s-1.062 2.39-1.102 2.35c.04.04-.491 3.36-.531 3.32.04.04-1.554 4.688-1.594 4.648" opacity="NaN"/><path fill="none" stroke="#fff" stroke-width=".5" d="M103.759 98.978V96.056c0-.133.102-.13.132 0 .069.29.198.242.266.531.03.13 0 .266 0 .266 0 .133.266.398.266.531s.094.305 0 .399c-.094.093-.225.06-.399.132-.122.051-.133 0-.133-.132v-.797c0-.133.133-.133.133-.266v-.398s.133 0 .133-.266v-.266c.133-.132.266-.265.266-.398v-.266c0-.132.06-.224.132-.398.051-.123-.05-.276 0-.398.072-.174.133-.266.133-.399s.061-.225.133-.398c.05-.123 0-.266 0-.399 0 0 .133-.132.133-.265v-.797l.133-.133c.094-.094 0-.265 0-.398s.132-.266.132-.399c0-.132-.05-.143 0-.265.072-.174.133-.266.133-.399 0 0-.05-.143 0-.265.072-.174.133-.133.133-.266v-.265c0-.133.01-.215.133-.266.173-.072.039-.305.133-.398a.639.639 0 0 1 .265-.133c0-.133.133-.399.266-.531 0 0 .172-.04.265-.133.094-.094-.093-.305 0-.399.094-.094.032-.153.133-.398.072-.174.04-.172.133-.266.094-.094.133-.132.133.133 0 .133-.112.4-.133.531-.067.415-.133.532-.133.532l-.133.53v.93"/><path fill="none" stroke="#fff" stroke-width=".5" d="M106.282 89.416s-.061.092-.133.266a.42.42 0 0 0 0 .265c0 .133-.06.225-.133.399-.05.122 0 .132 0 .265s.051.276 0 .399c-.072.173-.304.36-.398.265-.094-.094 0-.265 0-.398s.133-.399.133-.399v-.398c0-.133 0-.133.132-.266.133-.132.235.153.133.399-.072.173-.193.358-.265.531-.102.245.05.276 0 .398-.072.174-.266.266-.266.399v.265c0 .133-.133.266-.133.266 0 .133 0 .398-.133.531v.266c0 .133-.132.265-.132.265 0 .133.05.276 0 .399-.072.173-.133.265-.133.398v.664c0 .133-.194.225-.266.399-.05.122-.06.225-.133.398-.05.123 0 .266 0 .399 0 0-.06.092-.132.265-.102.245 0 .266 0 .399V94.86c0-.133.132-.133.132.133v.265c0 .133 0 .266.133.399l.133.133"/><path fill="none" stroke="#fff" stroke-width=".5" d="M104.688 95.525c0 .133 0 .265.133.265h.133M106.282 88.088v.797s-.133.133-.133.265v.266-.398"/><path fill="#fff" stroke="#fff" stroke-width=".5" d="M101.235 104.29 89.55 151.036M103.36 102.165c-.265.266-11.554 46.746-11.554 46.746" opacity="NaN"/><path fill="none" stroke="#fff" stroke-width=".5" d="M101.9 105.485c-.133 0-.072.14-.133.398-.137.579-.463.907-.532 1.196-.091.387-.065.382-.132.797-.022.13 0 .265 0 .132v-1.992c0-.133.094-.171 0-.265s-.33.242-.399.53c-.06.26.092.543 0 .93-.068.29-.133.266-.133.399 0 .266-.132.266-.132.398 0 0 .05.143 0 .266a1.718 1.718 0 0 1-.133.266c0 .265-.061.357-.133.53-.05.123 0 .4 0 .532 0 0-.133.266 0 .266s-.032-.4 0-.664c.067-.544.235-.668.266-.797a.626.626 0 0 1 .265-.399c0-.132 0-.398.133-.53 0 0 .143-.184.266-.134.173.072.132.399.132 1.063v.93c0 .265-.038.304-.132.398-.094.094-.133.398 0 .398.132 0 0-.265 0-.398V108.406c0-.265.132-.398.132-.53 0-.133-.094-.305 0-.399.094-.094.133.133.133.266 0 .664-.133 1.195-.133 1.593 0 .266-.132.664 0 .664.133 0 0-.398 0-.664v-.796s.133-.266 0-.266c-.132 0-.132.398-.265.797-.133.398-.058.817-.399 1.062-.107.078-.265.399-.132.399.265 0 0-.399 0-.797v-.664c0-.133-.041-.603.132-.531.123.05 0 .53 0 .664 0 .398-.132.796-.132.93 0 .132-.133.398 0 .398.132 0 0-.399 0-.399 0-.133.197-.508.265-.797.03-.129.061-.225.133-.398.152-.368 0-.398 0-.531v-.399s0-.132 0 0c0 .399.152.562 0 .93a1.73 1.73 0 0 0-.133.664c0 .133.12.64-.133.797-.113.07-.132.265-.132.265v.532-.93c0-.133.01-.082.132-.133.174-.072.133-.265.133-.265.133 0 .266 0 .266.132v.664s-.194.093-.266.266c-.05.123-.11.013-.265.266-.07.113-.11.145-.266.398-.07.113.04.29-.133.531-.11.153-.082.276-.133.399-.071.173-.193.225-.265.398-.102.245-.065.508-.133.797-.03.13-.194.49-.266.664a2.96 2.96 0 0 0-.132.664c0 .266.088.572-.133.93-.198.32-.235.401-.266.53-.068.29-.133.4-.133.532v.531-1.593s.102-.154 0-.399c-.072-.173-.132 0-.132.266 0 .133-.09.534-.133.797-.068.414-.198.507-.266.796-.03.13 0 .133 0 .266 0 .266.061.405 0 .664-.068.289-.133.266-.133.398 0 .133-.06.225-.132.399-.051.122.187.343 0 .531-.094.094-.133.133-.133.266v.132"/><path fill="none" stroke="#fff" stroke-width=".5" d="M98.58 117.437c.132.133.132.266.132.399 0 .265-.065.78-.133 1.195-.02.131 0 .266 0 .398v.266-2.258c0-.133.133-.398 0-.398-.132 0-.197.242-.265.531-.092.388-.133.664-.133.93 0 .133-.133.398-.133.53V120.094v-.398c0-.133-.094-.437 0-.531.094-.094.133-.133.133 0s.021.533 0 .664c-.067.414-.133.398-.133.53 0 .267 0 .134 0 0v-.397c0-.133.133-.266.133-.133 0 .398-.133.398-.133.797 0 .132-.235.402-.265.53-.069.29-.133.4-.266.665 0 0-.061.092-.133.265-.05.123 0 0 0-.265 0 0-.188-.344 0-.531.094-.094.133-.133.133-.266s.133-.266.133-.266l.133-.265M91.408 145.99v-2.391c0-.132-.05-.275 0-.398.072-.174.266-.133.266 0v.797c0 .133-.094.171 0 .265s.193-.092.265-.265c.051-.123 0-.399 0-.399 0-.265.133-.398.133-.53 0 0 .061-.093.133-.266.05-.123 0-.266 0-.266.133-.133.133-.398.265-.531.133-.133.194-.358.266-.531.102-.246.133-.266.133-.399s-.051-.143 0-.265c.072-.174.039-.305.133-.399.094-.094.071-.273.132-.531.069-.29.133-.399.133-.531v-.532c0-.132.133-.53.133-.53 0-.134.133-.4.133-.532 0-.266.265-.398.265-.531v-.797c0-.133.133-.266.133-.398 0-.133 0-.266.133-.399 0 0-.094-.171 0-.265s.133-.133.133-.266c0 0 .133-.133.133-.266v-.265.664c0 .133-.061.225-.133.398-.051.123.094.305 0 .399l-.133.132v.133-1.726h-.266v.797c0 .132-.038.171-.132.265s.187.344 0 .531c-.094.094-.133.133-.133.266v.266c-.133.132-.133.398-.133.53 0 0-.133.134-.133.266v.266c0 .133-.06.225-.133.398-.05.123 0 .133 0 .266s-.038.172-.132.266c-.094.094 0 .132 0 .265s-.133.266-.133.399c0 0-.133.265-.133.398v.797c0 .133-.133.398-.266.398v.532s.031.136 0 .265c-.068.29-.265.266-.265.399v.664-.797c0-.133.064-.242.133-.531.03-.13-.092-.542 0-.93.068-.29.331-.386.398-.93.033-.263-.05-.674 0-.797.072-.173.266-.398.398-.53.133-.134.133-.532.133-.532.133-.266.194-.49.266-.664.05-.123.06-.225.133-.398.05-.123.132-.532.132-.532 0-.265.025-.357.266-.53.152-.11-.055-.344.133-.532.094-.094.031-.153.133-.398.072-.174.193-.225.265-.399.051-.122.11-.146.266-.398.07-.113 0-.399 0-.399 0-.132.133-.265.133-.398v-.133"/><path fill="none" stroke="#fff" stroke-width=".5" d="M97.783 119.562c-.133 0-.133.133-.133.133v1.461c0 .133-.094.171 0 .265s.398-.265.398-.398c0-.266.082-.409.133-.531.072-.174.172-.172.266-.266.093-.094 0-.265 0-.531 0 0 0-.133 0 0 0 0-.023.512-.133.664-.174.24-.266.398-.266.531v.399c0 .132.051.408 0 .53-.072.174-.133.266-.133.4 0 .132-.132.265-.132.398v.265-.531c0-.133.121-.317.265-.664.051-.123 0-.266 0-.398v-.532c.133-.132.266-.398.133-.398s-.072.405-.133.664c-.068.289-.347.541-.398.664-.072.173-.031.286-.133.531-.072.174-.133.133-.133.266 0 .265-.172.304-.265.398-.094.094-.065.242-.133.531-.061.259 0 .399 0 .532v.53-.132c0-.398.066-.519.133-1.062.048-.396.06-.49.132-.664.051-.123 0-.266 0-.266.133-.266.133-.398.133-.531 0 0 .133-.266 0-.266s0 .266 0 .531c0 .266-.265.399-.265.532 0 .265-.065.64-.133.93-.061.258.03.401 0 .53-.069.29-.133.399-.133.399v.133c0-.133.066-.52.133-1.063.016-.132.133-.398.133-.664 0 0 .193-.225.265-.398.05-.123-.05-.143 0-.266.072-.173.133-.265.133-.398 0 0 .06-.092.133-.266.05-.123.133-.265.133 0 0 .399-.194 1.022-.266 1.195-.05.123.102.286 0 .532-.072.173-.133.132-.133.398 0 .133-.133.266-.133.531 0 .266-.064.242-.132.531-.031.13.03.27 0 .399-.069.289-.286.368-.133 0 .072-.174-.02-.296.133-.664.071-.174.242-.279.398-.531.14-.226 0-.399 0-.532 0 0-.05-.143 0-.265.072-.174.133-.266.133-.266 0-.133.133-.265.133-.133v.664s0 .133-.133.266-.133.266-.133.266v.664c0 .132 0 .398-.133.398 0 0-.042-.402 0-.664.067-.415.09-.667.133-.93.067-.414.197-.507.266-.796.06-.259-.208-.552.132-.797.108-.078.133-.266.133-.399v-.265c0-.266 0-.399.133-.399 0 0-.046.555-.266 1.196-.096.28-.262.484-.398 1.062-.061.258-.198.515-.266.93-.02.13-.265.53-.265.53 0 .266.156.733-.133.665-.13-.03 0-.266 0-.797 0-.664.133-.93.133-1.062 0-.266.06-.358.133-.532.05-.122 0-.265 0-.398-.133.531-.105.674-.266 1.062-.114.275-.327.49-.398.664-.102.246-.065.375-.133.664-.03.13-.065.243-.133.532-.061.258.06.272 0 .53-.068.29-.133.266-.133.4 0 .132-.133.265-.133.398v.398c0 .133-.132.133-.132.266v.398s.04.29-.133.531c-.11.153-.194.358-.266.532-.05.122 0 .265 0 .398v.398c0 .133-.142-.152 0-.664.207-.746.565-1.179.93-1.992.293-.652.37-.807.53-1.195.115-.274.256-.583.4-.93.05-.122.171-.437.265-.53.094-.095.064.004 0 .398-.067.414-.341.947-.531 1.46-.206.557-.464.648-.531 1.063a2.784 2.784 0 0 1-.266.664c-.22.357.166.593-.266.93-.104.081-.132.132-.132.265v.133c0-.266-.033-.665 0-1.062.066-.806.245-1.202.53-2.125.125-.402.134-.664.134-.93 0-.133-.022-.267 0-.398a7.82 7.82 0 0 1 .132-.664c0-.133.081.005 0 .664-.067.543-.07 1.075-.265 1.859-.102.407-.266.797-.266 1.195 0 .266-.072.538-.133.797-.068.289-.132.398-.132.664s-.399.664-.133.664c.133 0 .133-.531.265-1.062.133-.532.368-.934.399-1.063.068-.289.133-.398.265-.531 0 0 .061-.092.133-.266.05-.122.133-.265.133-.132v.53c0 .266-.266.532-.266.798 0 .265.03.534 0 .664-.068.289-.132.398-.132.53 0 .134-.133.266-.133.4 0 .132-.066.116-.133.53-.021.131 0 .266 0 .399s-.133.133-.133.265c0 0-.133.133-.133.266v.266c0 .132-.132.398 0 .398.266 0-.039-.533 0-.93.067-.673.266-1.062.266-1.328 0-.265.133-.53.133-.664v-1.195.133c0 .398-.399 1.062-.399 1.46 0 .4 0 .532-.132.665-.133.133-.245.267-.266.398-.067.415-.072.406-.133.664-.068.29-.172.305-.265.399-.094.094-.133.398 0 .398.132 0 .06-.358.132-.531.051-.123.061-.225.133-.399.05-.122.061-.357.133-.53.05-.124 0-.266 0-.4 0-.132-.094-.17 0-.265.094-.094.266-.133.266-.265v-.133c0 .265-.072.804-.133 1.062-.069.29-.194.49-.266.664-.05.123 0 .266 0 .133v-1.328c0-.133.061-.225.133-.398.05-.123.133-.399 0-.399s0 .266 0 .399c0 .132.094.437 0 .53-.094.095-.133.134-.133.266v.664s.05.276 0 .399c-.072.173-.133 0-.133-.133v-.797s0-.133 0 0c0 0-.06.225-.132.399-.051.122-.133.265 0 .265.132 0-.188-.343 0-.531l.132-.133c0-.133.133-.265.133-.398v-.399.664c0 .133-.194.092-.265.266-.051.123 0 .266 0 .398 0 0 .04.194-.133.266-.123.05-.133-.133-.133-.266v-.265c0-.133.133-.133.133-.266v-.531c0-.133-.041-.327.133-.398.245-.102.265.132.265.265v.664c0 .133 0 .266.133.531 0 0 .064.11.133.399.03.129.102.129.133 0 .068-.29.132-.399.132-.399v-.664"/><path fill="#fff" stroke="#fff" stroke-width=".5" d="M96.986 122.351v-.531l.133-.133v-.133M99.11 115.445v-.398.133"/><path fill="#fff" stroke="#fff" stroke-width=".5" d="m140.064 120.377-8.559 6.74" opacity="NaN"/><path fill="none" stroke="#fff" stroke-width=".5" d="M137.713 125.707c-.157.156-.627.313-.784.313-.313 0-.313-.627-.313-.627.313-.784.648-1.5 1.097-2.038.502-.601.813-.892 1.097-1.097.18-.13.47-.627.47-.627.157-.156.47-.47.314-.47-.157 0-.047.567-.47.94-.526.464-1.119 1.068-1.568 1.411-.394.301-.784.314-.94.47-.157.157-.314.157-.47.157-.157 0 .046.028.313-.47.074-.138.663-.604 1.097-.784.205-.085.314-.313.47-.313.157 0 .326-.097.47-.157.205-.085.314-.157.47-.313 0 0-.232-.145-.626.156-.45.343-.581.681-.94.94-.285.206-.314.314-.47.314a.543.543 0 0 0-.471.314c-.12.29-.157.313-.314.313-.156 0-.168.097-.313.157-.205.085-.313.313-.627.47 0 0-.457.09-.157 0 .541-.164.94-.627 1.411-.627 0 0 .265-.072.47-.157.145-.06.47-.313.784-.313l.313-.157c.157 0 .314 0 .47-.157.157-.156.17-.253.314-.313.205-.085.046-.203.157-.314.11-.11.12.181 0 .47-.17.41-.66.426-1.097.784-.172.14-.47.314-.627.47-.157.157-.314.314-.47.314-.157 0-.282.197-.47.314-.422.26-.66.268-1.098.627-.171.14-.524.267-.784.627-.205.284-.35.337-.47.626-.085.205-.157.314-.313.314 0 0-.302.253-.157.313.205.085.452-.343.94-.627.607-.351.94-.313 1.098-.313 0 0-.11.242-.627.47-.591.262-1.227.39-1.568.47-.305.072-.458.06-.313 0 .41-.17.817-.425 1.254-.783.171-.14.627-.157.627-.157s-.028.447-.157.627c-.205.284-.314.47-.314.313 0-.313.627-.783.157-.783-.157 0-.157.313-.157.47h-.47.314l.783-.47"/><path fill="#fff" stroke="#fff" stroke-width=".5" d="M21.255 55.173 42.1 67.086M-389.145-405.979l7.31 4.2-7.31-4.2zM63.903 78.428l36.703 20.996M55.194 66.142l15.863 9.487M103.676 100.048s-4.174 18.299-4.318 18.25M97.897 122.36l6.26-24.238-6.26 24.238zM129.519 128.299l9.951-7.866-9.951 7.866zM79.574 80.06l24.544 15.417M102.445 105.956l-1.568 5.642 1.568-5.642z" opacity="1"/></svg>
